<svg xmlns="http://www.w3.org/2000/svg" width="375" viewBox="0 0 375 375" height="375" version="1.0"><defs><clipPath id="a"><path d="M 253 154 L 327.75 154 L 327.75 219 L 253 219 Z M 253 154"/></clipPath><clipPath id="b"><path d="M 37.5 119 L 110 119 L 110 191 L 37.5 191 Z M 37.5 119"/></clipPath><clipPath id="c"><path d="M 140 79.242188 L 238 79.242188 L 238 116 L 140 116 Z M 140 79.242188"/></clipPath><clipPath id="d"><path d="M 250 255 L 296 255 L 296 311.742188 L 250 311.742188 Z M 250 255"/></clipPath></defs><path fill="#325D67" d="M 250.160156 141.574219 C 252.972656 141.574219 255.25 139.300781 255.25 136.492188 C 255.25 135.367188 254.875 134.328125 254.253906 133.484375 L 262.105469 123.445312 C 264.988281 125.367188 268.453125 126.488281 272.183594 126.488281 C 277.25 126.488281 281.832031 124.417969 285.128906 121.078125 L 297.734375 131.742188 C 296.488281 133.609375 295.761719 135.847656 295.761719 138.257812 C 295.761719 144.757812 301.042969 150.023438 307.554688 150.023438 C 314.066406 150.023438 319.34375 144.757812 319.34375 138.257812 C 319.34375 131.757812 314.066406 126.488281 307.554688 126.488281 C 304.441406 126.488281 301.617188 127.691406 299.507812 129.65625 L 286.902344 118.992188 C 289.082031 115.996094 290.371094 112.316406 290.371094 108.332031 C 290.371094 98.308594 282.226562 90.179688 272.183594 90.179688 C 262.136719 90.179688 253.996094 98.308594 253.996094 108.332031 C 253.996094 113.65625 256.289062 118.441406 259.941406 121.761719 L 252.09375 131.796875 C 251.496094 131.554688 250.84375 131.417969 250.160156 131.417969 C 247.351562 131.417969 245.070312 133.6875 245.070312 136.492188 C 245.070312 139.300781 247.351562 141.574219 250.160156 141.574219"/><path fill="#325D67" d="M 254.433594 263.359375 L 224.488281 242.289062 C 225.398438 240.621094 225.914062 238.707031 225.914062 236.675781 C 225.914062 230.175781 220.636719 224.90625 214.125 224.90625 C 207.613281 224.90625 202.335938 230.175781 202.335938 236.675781 C 202.335938 243.175781 207.613281 248.445312 214.125 248.445312 C 217.613281 248.445312 220.746094 246.929688 222.90625 244.527344 L 252.859375 265.601562 C 252.671875 266.128906 252.5625 266.699219 252.5625 267.296875 C 252.5625 270.101562 254.839844 272.375 257.652344 272.375 C 260.460938 272.375 262.738281 270.101562 262.738281 267.296875 C 262.738281 265.132812 261.378906 263.285156 259.46875 262.554688 L 259.902344 257.925781 C 260.003906 257.925781 260.105469 257.933594 260.210938 257.933594 C 270.257812 257.933594 278.398438 249.804688 278.398438 239.777344 C 278.398438 229.75 270.257812 221.621094 260.210938 221.621094 C 250.167969 221.621094 242.023438 229.75 242.023438 239.777344 C 242.023438 248.769531 248.574219 256.226562 257.167969 257.671875 L 256.738281 262.304688 C 255.875 262.457031 255.089844 262.828125 254.433594 263.359375"/><path fill="#7CD0CE" d="M 232.492188 166.257812 C 232.492188 166.847656 232.597656 167.414062 232.785156 167.941406 L 222.921875 174.84375 C 220.894531 172.574219 218 171.097656 214.757812 170.925781 L 213.433594 149.835938 C 218.941406 148.847656 223.121094 144.042969 223.121094 138.257812 C 223.121094 131.757812 217.84375 126.488281 211.332031 126.488281 C 204.820312 126.488281 199.539062 131.757812 199.539062 138.257812 C 199.539062 140.601562 200.230469 142.785156 201.414062 144.621094 L 189.660156 154.261719 C 188.832031 153.683594 187.828125 153.34375 186.746094 153.34375 C 183.933594 153.34375 181.65625 155.617188 181.65625 158.421875 C 181.65625 161.226562 183.933594 163.503906 186.746094 163.503906 C 189.554688 163.503906 191.832031 161.226562 191.832031 158.421875 C 191.832031 157.695312 191.679688 157.003906 191.398438 156.375 L 203.15625 146.734375 C 205.132812 148.632812 207.773438 149.855469 210.695312 150.007812 L 212.019531 171.097656 C 206.511719 172.085938 202.335938 176.890625 202.335938 182.675781 C 202.335938 189.175781 207.613281 194.445312 214.125 194.445312 C 220.636719 194.445312 225.914062 189.175781 225.914062 182.675781 C 225.914062 180.652344 225.402344 178.746094 224.5 177.082031 L 234.355469 170.183594 C 235.234375 170.902344 236.355469 171.335938 237.582031 171.335938 C 240.390625 171.335938 242.667969 169.0625 242.667969 166.257812 C 242.667969 163.449219 240.390625 161.175781 237.582031 161.175781 C 234.769531 161.175781 232.492188 163.449219 232.492188 166.257812"/><g clip-path="url(#a)"><path fill="#7CD0CE" d="M 317.609375 162.609375 C 312.523438 162.609375 308.320312 166.378906 307.652344 171.273438 L 290.316406 171.273438 C 289.613281 161.886719 281.769531 154.484375 272.183594 154.484375 C 262.140625 154.484375 253.996094 162.613281 253.996094 172.640625 C 253.996094 182.667969 262.140625 190.796875 272.183594 190.796875 C 281.769531 190.796875 289.613281 183.394531 290.316406 174.011719 L 307.652344 174.011719 C 308.046875 176.917969 309.695312 179.4375 312.039062 180.992188 L 304.898438 195.730469 C 303.6875 195.308594 302.386719 195.078125 301.03125 195.078125 C 294.519531 195.078125 289.242188 200.347656 289.242188 206.847656 C 289.242188 213.347656 294.519531 218.617188 301.03125 218.617188 C 307.542969 218.617188 312.824219 213.347656 312.824219 206.847656 C 312.824219 202.675781 310.644531 199.011719 307.367188 196.921875 L 314.503906 182.1875 C 315.484375 182.503906 316.527344 182.675781 317.609375 182.675781 C 323.160156 182.675781 327.660156 178.183594 327.660156 172.640625 C 327.660156 167.097656 323.160156 162.609375 317.609375 162.609375"/></g><path fill="#7CD0CE" d="M 117.65625 126.488281 C 119.261719 126.488281 120.816406 126.277344 122.300781 125.886719 L 135.679688 164.410156 C 134.359375 165.328125 133.492188 166.851562 133.492188 168.582031 C 133.492188 171.386719 135.769531 173.660156 138.582031 173.660156 C 141.390625 173.660156 143.667969 171.386719 143.667969 168.582031 C 143.667969 165.777344 141.390625 163.503906 138.582031 163.503906 C 138.476562 163.503906 138.375 163.511719 138.273438 163.519531 L 124.890625 124.988281 C 127.03125 124.0625 128.953125 122.738281 130.574219 121.109375 L 146.964844 135.039062 C 145.710938 136.910156 144.976562 139.15625 144.976562 141.574219 C 144.976562 148.074219 150.257812 153.34375 156.769531 153.34375 C 163.28125 153.34375 168.558594 148.074219 168.558594 141.574219 C 168.558594 135.074219 163.28125 129.804688 156.769531 129.804688 C 153.667969 129.804688 150.847656 131.003906 148.742188 132.957031 L 132.351562 119.027344 C 134.542969 116.027344 135.84375 112.332031 135.84375 108.332031 C 135.84375 98.308594 127.699219 90.179688 117.65625 90.179688 C 107.609375 90.179688 99.464844 98.308594 99.464844 108.332031 C 99.464844 118.359375 107.609375 126.488281 117.65625 126.488281"/><path fill="#7CD0CE" d="M 109.644531 202.566406 C 119.6875 202.566406 127.832031 194.4375 127.832031 184.410156 C 127.832031 174.382812 119.6875 166.257812 109.644531 166.257812 C 99.597656 166.257812 91.457031 174.382812 91.457031 184.410156 C 91.457031 192.300781 96.5 199.011719 103.542969 201.515625 L 99.433594 216.542969 C 97.875 216.554688 96.480469 217.265625 95.554688 218.375 L 85.214844 213.75 C 85.566406 212.636719 85.757812 211.449219 85.757812 210.222656 C 85.757812 203.71875 80.476562 198.449219 73.964844 198.449219 C 67.453125 198.449219 62.175781 203.71875 62.175781 210.222656 C 62.175781 216.71875 67.453125 221.988281 73.964844 221.988281 C 78.269531 221.988281 82.035156 219.6875 84.09375 216.246094 L 94.4375 220.875 C 94.402344 221.117188 94.378906 221.367188 94.378906 221.621094 C 94.378906 224.425781 96.65625 226.703125 99.464844 226.703125 C 102.277344 226.703125 104.554688 224.425781 104.554688 221.621094 C 104.554688 219.773438 103.558594 218.15625 102.078125 217.269531 L 106.191406 202.234375 C 107.308594 202.449219 108.460938 202.566406 109.644531 202.566406"/><g clip-path="url(#b)"><path fill="#325D67" d="M 73.964844 172.640625 C 73.964844 170.394531 73.554688 168.242188 72.804688 166.257812 L 100.691406 153.328125 C 101.625 154.414062 103.007812 155.105469 104.554688 155.105469 C 107.367188 155.105469 109.644531 152.832031 109.644531 150.023438 C 109.644531 147.222656 107.367188 144.945312 104.554688 144.945312 C 103.175781 144.945312 101.925781 145.496094 101.007812 146.386719 L 83.285156 136.105469 C 83.910156 134.667969 84.261719 133.082031 84.261719 131.417969 C 84.261719 124.917969 78.980469 119.644531 72.46875 119.644531 C 65.957031 119.644531 60.679688 124.917969 60.679688 131.417969 C 60.679688 137.914062 65.957031 143.183594 72.46875 143.183594 C 76.328125 143.183594 79.757812 141.332031 81.90625 138.472656 L 99.632812 148.753906 C 99.527344 149.160156 99.464844 149.585938 99.464844 150.023438 C 99.464844 150.304688 99.496094 150.574219 99.539062 150.84375 L 71.648438 163.773438 C 68.535156 158.234375 62.597656 154.484375 55.777344 154.484375 C 45.734375 154.484375 37.589844 162.613281 37.589844 172.640625 C 37.589844 182.667969 45.734375 190.796875 55.777344 190.796875 C 65.824219 190.796875 73.964844 182.667969 73.964844 172.640625"/></g><path fill="#325D67" d="M 303.316406 228.375 C 301.0625 228.375 298.980469 229.113281 297.308594 230.363281 L 276.59375 209.371094 C 277.023438 208.625 277.269531 207.765625 277.269531 206.847656 C 277.269531 204.042969 274.992188 201.769531 272.183594 201.769531 C 269.96875 201.769531 268.089844 203.183594 267.390625 205.160156 L 237.472656 203.160156 C 236.992188 200.855469 234.945312 199.121094 232.492188 199.121094 C 229.679688 199.121094 227.402344 201.394531 227.402344 204.203125 C 227.402344 207.003906 229.679688 209.277344 232.492188 209.277344 C 234.707031 209.277344 236.585938 207.867188 237.285156 205.890625 L 267.199219 207.886719 C 267.679688 210.195312 269.730469 211.929688 272.183594 211.929688 C 273.074219 211.929688 273.914062 211.695312 274.644531 211.292969 L 295.351562 232.289062 C 294.046875 233.980469 293.265625 236.105469 293.265625 238.410156 C 293.265625 243.953125 297.765625 248.445312 303.316406 248.445312 C 308.871094 248.445312 313.371094 243.953125 313.371094 238.410156 C 313.371094 232.867188 308.871094 228.375 303.316406 228.375"/><g clip-path="url(#c)"><path fill="#325D67" d="M 150.371094 104.777344 C 155.242188 104.777344 159.304688 101.316406 160.226562 96.726562 L 174.960938 97.644531 C 175.089844 107.5625 183.179688 115.5625 193.144531 115.5625 C 203.1875 115.5625 211.332031 107.4375 211.332031 97.40625 C 211.332031 95.9375 211.152344 94.511719 210.820312 93.140625 L 228.25 87.511719 C 229.164062 88.882812 230.722656 89.785156 232.492188 89.785156 C 235.300781 89.785156 237.582031 87.511719 237.582031 84.707031 C 237.582031 81.902344 235.300781 79.625 232.492188 79.625 C 229.679688 79.625 227.402344 81.902344 227.402344 84.707031 C 227.402344 84.773438 227.410156 84.839844 227.410156 84.90625 L 209.980469 90.535156 C 207.261719 83.917969 200.75 79.253906 193.144531 79.253906 C 183.945312 79.253906 176.347656 86.070312 175.132812 94.914062 L 160.394531 93.996094 C 160.011719 88.800781 155.671875 84.707031 150.371094 84.707031 C 144.820312 84.707031 140.320312 89.199219 140.320312 94.742188 C 140.320312 100.285156 144.820312 104.777344 150.371094 104.777344"/></g><g clip-path="url(#d)"><path fill="#7CD0CE" d="M 283.972656 255.984375 C 277.460938 255.984375 272.183594 261.253906 272.183594 267.75 C 272.183594 270.160156 272.90625 272.394531 274.148438 274.257812 L 266.925781 280.355469 C 265.148438 278.757812 262.792969 277.785156 260.210938 277.785156 C 254.660156 277.785156 250.160156 282.28125 250.160156 287.820312 C 250.160156 293.363281 254.660156 297.855469 260.210938 297.855469 C 261.703125 297.855469 263.113281 297.53125 264.386719 296.949219 L 268.40625 303.28125 C 267.59375 304.179688 267.09375 305.367188 267.09375 306.675781 C 267.09375 309.480469 269.371094 311.753906 272.183594 311.753906 C 274.992188 311.753906 277.269531 309.480469 277.269531 306.675781 C 277.269531 303.867188 274.992188 301.59375 272.183594 301.59375 C 271.671875 301.59375 271.183594 301.671875 270.71875 301.8125 L 266.699219 295.484375 C 268.878906 293.640625 270.265625 290.894531 270.265625 287.820312 C 270.265625 285.84375 269.691406 284 268.699219 282.445312 L 275.921875 276.34375 C 278.03125 278.3125 280.859375 279.523438 283.972656 279.523438 C 290.484375 279.523438 295.761719 274.253906 295.761719 267.75 C 295.761719 261.253906 290.484375 255.984375 283.972656 255.984375"/></g><path fill="#325D67" d="M 174.957031 236.675781 C 171.003906 236.675781 167.511719 238.617188 165.371094 241.59375 L 155.117188 235.933594 C 156.175781 233.632812 156.769531 231.074219 156.769531 228.375 C 156.769531 222.941406 154.378906 218.074219 150.59375 214.75 L 158.734375 203.96875 C 161.570312 205.789062 164.9375 206.847656 168.558594 206.847656 C 178.605469 206.847656 186.746094 198.722656 186.746094 188.691406 C 186.746094 178.667969 178.605469 170.539062 168.558594 170.539062 C 158.515625 170.539062 150.371094 178.667969 150.371094 188.691406 C 150.371094 194.121094 152.761719 198.992188 156.546875 202.320312 L 148.402344 213.097656 C 145.570312 211.28125 142.199219 210.222656 138.582031 210.222656 C 128.535156 210.222656 120.394531 218.347656 120.394531 228.375 C 120.394531 238.398438 128.535156 246.527344 138.582031 246.527344 C 144.941406 246.527344 150.539062 243.265625 153.789062 238.328125 L 164.042969 243.988281 C 163.480469 245.359375 163.164062 246.867188 163.164062 248.445312 C 163.164062 254.945312 168.445312 260.214844 174.957031 260.214844 C 181.46875 260.214844 186.746094 254.945312 186.746094 248.445312 C 186.746094 241.945312 181.46875 236.675781 174.957031 236.675781"/><path fill="#7CD0CE" d="M 232.492188 255.984375 C 227.429688 255.984375 223.113281 259.167969 221.445312 263.636719 L 207.414062 260.199219 C 207.324219 257.472656 205.085938 255.285156 202.335938 255.285156 C 202.257812 255.285156 202.1875 255.292969 202.113281 255.296875 L 190.777344 220.765625 C 192.140625 219.855469 193.039062 218.304688 193.039062 216.542969 C 193.039062 213.738281 190.761719 211.464844 187.949219 211.464844 C 185.140625 211.464844 182.859375 213.738281 182.859375 216.542969 C 182.859375 219.347656 185.140625 221.621094 187.949219 221.621094 C 188.023438 221.621094 188.09375 221.617188 188.171875 221.609375 L 199.503906 256.144531 C 198.144531 257.054688 197.242188 258.605469 197.242188 260.363281 C 197.242188 263.167969 199.523438 265.445312 202.335938 265.445312 C 204.234375 265.445312 205.890625 264.402344 206.761719 262.859375 L 220.792969 266.296875 C 220.734375 266.773438 220.703125 267.257812 220.703125 267.75 C 220.703125 274.253906 225.980469 279.523438 232.492188 279.523438 C 239.003906 279.523438 244.28125 274.253906 244.28125 267.75 C 244.28125 261.253906 239.003906 255.984375 232.492188 255.984375"/></svg>